<svg width="32" height="33" viewBox="0 0 32 33" fill="none" xmlns="http://www.w3.org/2000/svg">
<path opacity="0.4" d="M9.46875 17.8461C8.53125 16.9711 8 15.7211 8 14.4086V14.2523C8 12.0648 9.5625 10.1898 11.7188 9.84607C13.1562 9.59607 14.5938 10.0648 15.625 11.0648L16 11.4398L16.375 11.0648C17.375 10.0648 18.8438 9.59607 20.25 9.84607C22.4062 10.1898 24 12.0648 24 14.2523V14.4086C24 15.7211 23.4375 16.9711 22.5 17.8461L16.8438 23.1273C16.625 23.3461 16.3125 23.4398 16 23.4398C15.6562 23.4398 15.3438 23.3461 15.125 23.1273L9.46875 17.8461Z" fill="#687589"/>
</svg>
