<svg width="32" height="33" viewBox="0 0 32 33" fill="none" xmlns="http://www.w3.org/2000/svg">
<path opacity="0.4" d="M9 16.7218L16 10.5968L23 16.7218V23.0031C23 23.6906 22.4375 24.2531 21.75 24.2531H19.25C18.5312 24.2531 18 23.7218 18 23.0031V20.2531C18 19.6906 17.5312 19.2531 17 19.2531H15C14.4375 19.2531 14 19.6906 14 20.2531V23.0031C14 23.7218 13.4375 24.2531 12.75 24.2531H10.25C9.5625 24.2531 9 23.7218 9 23.0031V16.7218Z" fill="#2F74DE"/>
<path d="M15.3125 8.50305C15.7188 8.19055 16.2812 8.19055 16.6562 8.50305L24.6562 15.5031C25.0625 15.8781 25.0938 16.5031 24.75 16.9406C24.375 17.3468 23.75 17.3781 23.3125 17.0343L16 10.5968L8.65625 17.0343C8.21875 17.3781 7.59375 17.3468 7.21875 16.9406C6.875 16.5031 6.90625 15.8781 7.3125 15.5031L15.3125 8.50305Z" fill="#2F74DE"/>
</svg>
