<svg width="32" height="33" viewBox="0 0 32 33" fill="none" xmlns="http://www.w3.org/2000/svg">
<path opacity="0.4" d="M14 16.8132C14 16.1257 14.375 15.4695 15 15.0945C15.5938 14.7507 16.375 14.7507 17 15.0945C17.5938 15.4695 18 16.1257 18 16.8132C18 17.532 17.5938 18.1882 17 18.5632C16.375 18.907 15.5938 18.907 15 18.5632C14.375 18.1882 14 17.532 14 16.8132Z" fill="#687589"/>
<path d="M23.2812 14.8132L22.3125 15.6882C22.0625 15.907 21.9688 16.2195 21.9688 16.5632C21.9688 16.657 22 16.7195 22 16.8132C22 16.907 21.9688 17.0007 21.9688 17.0945C21.9688 17.4382 22.0938 17.7507 22.3125 17.9695L23.2812 18.8445C23.5 19.032 23.5938 19.3445 23.5 19.6257C23.3438 20.0007 23.1875 20.3445 23 20.6882L22.8438 20.9382C22.625 21.282 22.4062 21.6257 22.1562 21.907C21.9688 22.157 21.6562 22.2195 21.375 22.1257L20.1562 21.7507C19.8438 21.657 19.5 21.7195 19.2188 21.8757C19.0625 21.9695 18.9062 22.0632 18.75 22.157C18.4688 22.3132 18.2188 22.5632 18.1562 22.8757L17.875 24.157C17.8125 24.4382 17.5938 24.657 17.3125 24.7195C16.875 24.782 16.4375 24.8132 16 24.8132C15.5312 24.8132 15.0938 24.782 14.6562 24.7195C14.375 24.657 14.1562 24.4382 14.0938 24.157L13.8125 22.8757C13.75 22.5632 13.5 22.3132 13.2188 22.157C13.0625 22.0632 12.9062 21.9695 12.75 21.8757C12.4688 21.7195 12.125 21.6257 11.8125 21.7507L10.5938 22.1257C10.3125 22.2195 10 22.157 9.8125 21.907C9.5625 21.6257 9.34375 21.282 9.125 20.9382L8.96875 20.6882C8.78125 20.3445 8.625 20.0007 8.5 19.6257C8.375 19.3445 8.46875 19.032 8.6875 18.8445L9.65625 17.9695C9.90625 17.7507 10 17.4382 10 17.0945C10 17.0007 10 16.907 10 16.8132C10 16.7195 10 16.6257 10 16.5632C10 16.2195 9.90625 15.907 9.65625 15.6882L8.6875 14.8132C8.46875 14.5945 8.375 14.3132 8.5 14.032C8.625 13.657 8.78125 13.3132 8.96875 12.9695L9.125 12.7195C9.34375 12.3757 9.5625 12.032 9.8125 11.7195C10 11.5007 10.3125 11.4382 10.5938 11.532L11.8125 11.907C12.125 12.0007 12.4688 11.9382 12.75 11.782C12.9062 11.657 13.0625 11.5945 13.2188 11.5007C13.5 11.3445 13.75 11.0945 13.8125 10.7507L14.0938 9.50073C14.1562 9.21948 14.375 8.96948 14.6562 8.93823C15.0938 8.87573 15.5312 8.81323 16 8.81323C16.4375 8.81323 16.875 8.87573 17.3125 8.93823C17.5938 9.00073 17.8125 9.21948 17.875 9.50073L18.1562 10.782C18.2188 11.0945 18.4688 11.3445 18.75 11.5007C18.9062 11.5945 19.0625 11.6882 19.2188 11.782C19.5 11.9382 19.8438 12.0007 20.1562 11.907L21.375 11.532C21.6562 11.4382 21.9688 11.5007 22.1562 11.7195C22.4062 12.032 22.625 12.3757 22.8438 12.7195L23 12.9695C23.1875 13.3132 23.3438 13.657 23.5 14.032C23.5938 14.3132 23.5 14.5945 23.2812 14.8132ZM16 13.8132C14.9062 13.8132 13.9375 14.407 13.375 15.3132C12.8438 16.2507 12.8438 17.407 13.375 18.3132C13.9375 19.2507 14.9062 19.8132 16 19.8132C17.0625 19.8132 18.0312 19.2507 18.5938 18.3132C19.125 17.407 19.125 16.2507 18.5938 15.3132C18.0312 14.407 17.0625 13.8132 16 13.8132Z" fill="#687589"/>
</svg>
