<svg width="32" height="32" viewBox="0 0 32 32" fill="none" xmlns="http://www.w3.org/2000/svg">
<path opacity="0.4" d="M15.9949 7.75391C16.5261 7.75391 16.9949 8.22266 16.9949 8.75391V9.37891C19.2761 9.81641 20.9949 11.8477 20.9949 14.2539V14.8477C20.9949 16.3164 21.5261 17.7539 22.4949 18.8477L22.7136 19.0977C22.9949 19.4102 23.0574 19.8164 22.9011 20.1914C22.7449 20.5352 22.3699 20.7539 21.9949 20.7539H9.99487C9.58862 20.7539 9.21362 20.5352 9.05737 20.1914C8.90112 19.8164 8.96362 19.4102 9.24487 19.0977L9.46362 18.8477C10.4324 17.7539 10.9949 16.3164 10.9949 14.8477V14.2539C10.9949 11.8477 12.7136 9.81641 14.9949 9.37891V8.75391C14.9949 8.22266 15.4324 7.75391 15.9949 7.75391Z" fill="#1677FF"/>
<path d="M17.9949 21.7539C17.9949 22.2852 17.7761 22.8164 17.4011 23.1914C17.0261 23.5664 16.5261 23.7539 15.9949 23.7539C15.4636 23.7539 14.9324 23.5664 14.5574 23.1914C14.1824 22.8164 13.9949 22.2852 13.9949 21.7539H15.9949H17.9949Z" fill="#1677FF"/>
</svg>
