<svg width="32" height="32" viewBox="0 0 32 32" fill="none" xmlns="http://www.w3.org/2000/svg">
<path d="M23.7786 16.7078L18.445 23.7066C17.9687 24.3315 17.1433 23.8941 17.1433 22.9984V18.9991H12.8256C12.4034 18.9991 12.0637 18.5533 12.0637 17.9992V13.9999C12.0637 13.4458 12.4034 13.0001 12.8256 13.0001H17.1433V9.00072C17.1433 8.1092 17.9656 7.66761 18.445 8.2925L23.7786 15.2913C24.0738 15.6829 24.0738 16.3162 23.7786 16.7078ZM14.0955 23.4983V21.8319C14.0955 21.557 13.9241 21.332 13.7146 21.332H11.0478C10.4858 21.332 10.0318 20.7363 10.0318 19.9989V12.0002C10.0318 11.2628 10.4858 10.6671 11.0478 10.6671H13.7146C13.9241 10.6671 14.0955 10.4421 14.0955 10.1672V8.5008C14.0955 8.22585 13.9241 8.00089 13.7146 8.00089H11.0478C9.36515 8.00089 8 9.79226 8 12.0002V19.9989C8 22.2069 9.36515 23.9982 11.0478 23.9982H13.7146C13.9241 23.9982 14.0955 23.7733 14.0955 23.4983Z" fill="#687589"/>
</svg>
