<svg width="16" height="17" viewBox="0 0 16 17" fill="none" xmlns="http://www.w3.org/2000/svg">
<path opacity="0.4" d="M5.99487 8.75391C5.99487 8.06641 6.36987 7.41016 6.99487 7.03516C7.58862 6.69141 8.36987 6.69141 8.99487 7.03516C9.58862 7.41016 9.99487 8.06641 9.99487 8.75391C9.99487 9.47266 9.58862 10.1289 8.99487 10.5039C8.36987 10.8477 7.58862 10.8477 6.99487 10.5039C6.36987 10.1289 5.99487 9.47266 5.99487 8.75391Z" fill="#D6C57A"/>
<path d="M15.2761 6.75391L14.3074 7.62891C14.0574 7.84766 13.9636 8.16016 13.9636 8.50391C13.9636 8.59766 13.9949 8.66016 13.9949 8.75391C13.9949 8.84766 13.9636 8.94141 13.9636 9.03516C13.9636 9.37891 14.0886 9.69141 14.3074 9.91016L15.2761 10.7852C15.4949 10.9727 15.5886 11.2852 15.4949 11.5664C15.3386 11.9414 15.1824 12.2852 14.9949 12.6289L14.8386 12.8789C14.6199 13.2227 14.4011 13.5664 14.1511 13.8477C13.9636 14.0977 13.6511 14.1602 13.3699 14.0664L12.1511 13.6914C11.8386 13.5977 11.4949 13.6602 11.2136 13.8164C11.0574 13.9102 10.9011 14.0039 10.7449 14.0977C10.4636 14.2539 10.2136 14.5039 10.1511 14.8164L9.86987 16.0977C9.80737 16.3789 9.58862 16.5977 9.30737 16.6602C8.86987 16.7227 8.43237 16.7539 7.99487 16.7539C7.52612 16.7539 7.08862 16.7227 6.65112 16.6602C6.36987 16.5977 6.15112 16.3789 6.08862 16.0977L5.80737 14.8164C5.74487 14.5039 5.49487 14.2539 5.21362 14.0977C5.05737 14.0039 4.90112 13.9102 4.74487 13.8164C4.46362 13.6602 4.11987 13.5664 3.80737 13.6914L2.58862 14.0664C2.30737 14.1602 1.99487 14.0977 1.80737 13.8477C1.55737 13.5664 1.33862 13.2227 1.11987 12.8789L0.963623 12.6289C0.776123 12.2852 0.619873 11.9414 0.494873 11.5664C0.369873 11.2852 0.463623 10.9727 0.682373 10.7852L1.65112 9.91016C1.90112 9.69141 1.99487 9.37891 1.99487 9.03516C1.99487 8.94141 1.99487 8.84766 1.99487 8.75391C1.99487 8.66016 1.99487 8.56641 1.99487 8.50391C1.99487 8.16016 1.90112 7.84766 1.65112 7.62891L0.682373 6.75391C0.463623 6.53516 0.369873 6.25391 0.494873 5.97266C0.619873 5.59766 0.776123 5.25391 0.963623 4.91016L1.11987 4.66016C1.33862 4.31641 1.55737 3.97266 1.80737 3.66016C1.99487 3.44141 2.30737 3.37891 2.58862 3.47266L3.80737 3.84766C4.11987 3.94141 4.46362 3.87891 4.74487 3.72266C4.90112 3.59766 5.05737 3.53516 5.21362 3.44141C5.49487 3.28516 5.74487 3.03516 5.80737 2.69141L6.08862 1.44141C6.15112 1.16016 6.36987 0.910156 6.65112 0.878906C7.08862 0.816406 7.52612 0.753906 7.99487 0.753906C8.43237 0.753906 8.86987 0.816406 9.30737 0.878906C9.58862 0.941406 9.80737 1.16016 9.86987 1.44141L10.1511 2.72266C10.2136 3.03516 10.4636 3.28516 10.7449 3.44141C10.9011 3.53516 11.0574 3.62891 11.2136 3.72266C11.4949 3.87891 11.8386 3.94141 12.1511 3.84766L13.3699 3.47266C13.6511 3.37891 13.9636 3.44141 14.1511 3.66016C14.4011 3.97266 14.6199 4.31641 14.8386 4.66016L14.9949 4.91016C15.1824 5.25391 15.3386 5.59766 15.4949 5.97266C15.5886 6.25391 15.4949 6.53516 15.2761 6.75391ZM7.99487 5.75391C6.90112 5.75391 5.93237 6.34766 5.36987 7.25391C4.83862 8.19141 4.83862 9.34766 5.36987 10.2539C5.93237 11.1914 6.90112 11.7539 7.99487 11.7539C9.05737 11.7539 10.0261 11.1914 10.5886 10.2539C11.1199 9.34766 11.1199 8.19141 10.5886 7.25391C10.0261 6.34766 9.05737 5.75391 7.99487 5.75391Z" fill="#D6C57A"/>
</svg>
