<svg width="16" height="17" viewBox="0 0 16 17" fill="none" xmlns="http://www.w3.org/2000/svg">
<path opacity="0.4" d="M5.99487 0.753906H11.9949V2.75391C11.9949 3.31641 12.4324 3.75391 12.9949 3.75391H14.9949V11.7539C14.9949 12.8789 14.0886 13.7539 12.9949 13.7539H5.99487C4.86987 13.7539 3.99487 12.8789 3.99487 11.7539V2.75391C3.99487 1.66016 4.86987 0.753906 5.99487 0.753906Z" fill="#5C9BF4"/>
<path d="M11.9949 0.753906L14.9949 3.75391H12.9949C12.4324 3.75391 11.9949 3.31641 11.9949 2.75391V0.753906ZM2.49487 4.50391V12.5039C2.49487 14.0352 3.71362 15.2539 5.24487 15.2539H11.2449C11.6511 15.2539 11.9949 15.5977 11.9949 16.0039C11.9949 16.4414 11.6511 16.7539 11.2449 16.7539H5.24487C2.86987 16.7539 0.994873 14.8789 0.994873 12.5039V4.50391C0.994873 4.09766 1.30737 3.75391 1.74487 3.75391C2.15112 3.75391 2.49487 4.09766 2.49487 4.50391Z" fill="#5C9BF4"/>
</svg>
