<svg width="16" height="17" viewBox="0 0 16 17" fill="none" xmlns="http://www.w3.org/2000/svg">
<path opacity="0.4" d="M2.99487 13.7539C2.99487 13.2227 3.43237 12.7539 3.99487 12.7539H13.9949V14.7539H3.99487C3.43237 14.7539 2.99487 14.3164 2.99487 13.7539Z" fill="#F48982"/>
<path d="M0.994873 3.75391C0.994873 2.09766 2.33862 0.753906 3.99487 0.753906H12.9949H13.9949C14.5261 0.753906 14.9949 1.22266 14.9949 1.75391V11.7539C14.9949 12.3164 14.5261 12.7539 13.9949 12.7539H11.9949H8.99487H3.99487C3.43237 12.7539 2.99487 13.2227 2.99487 13.7539C2.99487 14.3164 3.43237 14.7539 3.99487 14.7539H8.99487H11.9949H13.9949C14.5261 14.7539 14.9949 15.2227 14.9949 15.7539C14.9949 16.3164 14.5261 16.7539 13.9949 16.7539H12.9949H3.99487C2.33862 16.7539 0.994873 15.4102 0.994873 13.7539V3.75391ZM5.49487 4.75391C5.21362 4.75391 4.99487 5.00391 4.99487 5.25391C4.99487 5.53516 5.21362 5.75391 5.49487 5.75391H11.4949C11.7449 5.75391 11.9949 5.53516 11.9949 5.25391C11.9949 5.00391 11.7449 4.75391 11.4949 4.75391H5.49487ZM4.99487 7.25391C4.99487 7.53516 5.21362 7.75391 5.49487 7.75391H11.4949C11.7449 7.75391 11.9949 7.53516 11.9949 7.25391C11.9949 7.00391 11.7449 6.75391 11.4949 6.75391H5.49487C5.21362 6.75391 4.99487 7.00391 4.99487 7.25391Z" fill="#F48982"/>
</svg>
